<?xml version="1.0" standalone="no"?>
<!DOCTYPE svg PUBLIC "-//W3C//DTD SVG 20010904//EN"
 "http://www.w3.org/TR/2001/REC-SVG-20010904/DTD/svg10.dtd">
<svg version="1.0" xmlns="http://www.w3.org/2000/svg"
 width="147.000000pt" height="147.000000pt" viewBox="0 0 147.000000 147.000000"
 preserveAspectRatio="xMidYMid meet">
<metadata>
Created by potrace 1.14, written by Peter Selinger 2001-2017
</metadata>
<g transform="translate(0.000000,147.000000) scale(0.100000,-0.100000)"
fill="#000000" stroke="none">
<path d="M133 1079 c2 -33 -2 -64 -8 -69 -5 -4 -36 -7 -68 -6 l-57 1 0 -266 0
-266 65 0 65 0 1 36 c0 20 1 140 1 267 l1 230 291 -1 c160 0 296 1 301 2 8 3
12 82 6 126 -1 4 -136 7 -300 7 l-300 0 2 -61z"/>
<path d="M800 740 l0 -400 267 2 267 3 -2 45 c-2 80 1 86 55 83 81 -3 79 -5
79 102 l0 94 -65 3 -66 3 -1 58 c0 32 -5 62 -11 65 -6 4 -97 7 -201 6 l-190
-1 1 102 1 102 189 -1 c104 -1 193 2 198 5 6 3 11 32 12 65 l2 59 -267 3 -268
2 0 -400z m533 -155 c-1 -44 -2 -87 -2 -96 -1 -13 -25 -15 -188 -14 -104 1
-193 3 -200 3 -8 2 -11 31 -10 97 l1 95 200 -2 200 -3 -1 -80z"/>
<path d="M1333 910 l0 -100 66 0 66 0 1 100 0 100 -66 0 -67 0 0 -100z"/>
<path d="M478 869 c-6 -4 -11 -33 -12 -65 l-1 -59 68 -3 67 -3 0 -133 0 -132
-230 0 c-259 1 -238 8 -238 -81 l0 -53 234 0 234 0 0 64 c0 72 1 73 78 70 61
-2 53 -31 55 224 0 89 -3 165 -6 168 -9 9 -236 11 -249 3z"/>
</g>
</svg>
